#!OML:ASF I:\Actors\actors\Patient Classification 1\Patient 1\Session 1\Subject1.ASF
:FULLY-SPECIFIED
:DEGREES
1333
root -0.110375 17.4878 8.64694 7.79163 0.45286 -8.87984
lowerback -2.00929 1.66034 7.95114
upperback -8.95747 2.54015 1.21722
thorax -8.07138 0.735844 -3.26625
lowerneck -9.08983 -5.56876 -3.86922
upperneck 25.777 -9.09394 7.16494
head 10.2131 -3.82091 2.11774
rclavicle -7.15625e-015 -1.27222e-014
rhumerus -60.9017 -36.9436 -47.923
rradius 14.6695
rwrist 48.9629
rhand 19.0175 -35.7301
rfingers 7.12502
rthumb 43.6187 -1499.75
lclavicle -7.15625e-015 -1.27222e-014
lhumerus -54.4314 33.3891 54.1623
lradius 10.7078
lwrist -45.5378
lhand -22.7779 -8.0351
lfingers 7.12502
lthumb 3.65761 381.913
rfemur -2.27201 20.7384 26.5264
rtibia 4.80322
rfoot -15.0321 -22.8354
rtoes 2.90129
lfemur 5.74714 -40.8741 -11.1789
ltibia -3.78491
lfoot -18.6338 49.5684
ltoes 5.59843
1334
root -0.110052 17.4881 8.64425 7.77984 0.473409 -8.89676
lowerback -1.96225 1.66851 7.94057
upperback -8.95462 2.55567 1.21745
thorax -8.09409 0.743478 -3.26234
lowerneck -8.9595 -5.4947 -3.88888
upperneck 25.6661 -8.99954 7.25714
head 10.1465 -3.7751 2.16862
rclavicle 8.34896e-015 -2.38542e-014
rhumerus -60.6526 -36.8626 -48.2073
rradius 14.7599
rwrist 48.4704
rhand 18.6314 -35.7121
rfingers 7.12502
rthumb 43.258 -1499.87
lclavicle 8.34896e-015 -2.38542e-014
lhumerus -54.3603 33.557 53.9751
lradius 10.6876
lwrist -46.0408
lhand -22.8546 -8.21668
lfingers 7.12502
lthumb 3.58348 381.733
rfemur -2.27594 20.6284 26.5338
rtibia 4.80747
rfoot -15.0348 -22.7458
rtoes 2.94491
lfemur 5.73519 -40.8928 -11.1583
ltibia -3.77699
lfoot -18.6124 49.5833
ltoes 5.56149
1335
root -0.110352 17.4883 8.64135 7.7679 0.488625 -8.92756
lowerback -1.91862 1.66607 7.91267
upperback -8.94948 2.55776 1.24584
thorax -8.11538 0.747057 -3.21832
lowerneck -8.82782 -5.39538 -3.89622
upperneck 25.5486 -8.87438 7.36305
head 10.0753 -3.71257 2.22583
rclavicle 1.63003e-014 7.95139e-015
rhumerus -60.3507 -36.765 -48.4927
rradius 14.8741
rwrist 48.0737
rhand 18.4749 -35.7153
rfingers 7.12502
rthumb 43.1118 -1499.92
lclavicle 1.63003e-014 7.95139e-015
lhumerus -53.9544 33.1334 54.6157
lradius 10.8019
lwrist -45.5763
lhand -22.8427 -8.27052
lfingers 7.12502
lthumb 3.595 381.679
rfemur -2.27774 20.5592 26.5637
rtibia 4.79988
rfoot -14.9861 -22.7053
rtoes 2.7437
lfemur 5.7468 -40.9621 -11.1279
ltibia -3.79009
lfoot -18.7462 49.6228
ltoes 5.69577
1336
root -0.111613 17.4883 8.63958 7.75414 0.503099 -8.95713
lowerback -1.9008 1.65778 7.87202
upperback -8.93398 2.54887 1.28329
thorax -8.11191 0.747778 -3.15619
lowerneck -8.88623 -5.35833 -3.92936
upperneck 25.6396 -8.83678 7.41943
head 10.1216 -3.68816 2.25504
rclavicle -1.0635e-014 -1.94809e-014
rhumerus -59.9494 -36.5814 -48.9314
rradius 15.0066
rwrist 47.513
rhand 18.2995 -35.7308
rfingers 7.12502
rthumb 42.9478 -1500
lclavicle -1.0635e-014 -1.94809e-014
lhumerus -53.3711 32.3682 55.7219
lradius 10.9989
lwrist -44.5126
lhand -22.7252 -8.21333
lfingers 7.12502
lthumb 3.70846 381.734
rfemur -2.2506 20.6065 26.6144
rtibia 4.77019
rfoot -14.9742 -22.7601
rtoes 2.69602
lfemur 5.74527 -40.9418 -11.077
ltibia -3.79993
lfoot -18.7816 49.5828
ltoes 5.76797
1337
root -0.112181 17.4885 8.63832 7.76277 0.506555 -9.023
lowerback -1.89647 1.65491 7.89835
upperback -8.93393 2.54831 1.31515
thorax -8.11548 0.746848 -3.13713
lowerneck -8.99 -5.3717 -4.01084
upperneck 25.8071 -8.87705 7.50467
head 10.214 -3.6983 2.29233
rclavicle 9.14409e-015 1.15295e-014
rhumerus -59.5436 -36.3467 -49.4388
rradius 15.1407
rwrist 46.9076
rhand 18.1321 -35.723
rfingers 7.12502
rthumb 42.7912 -1500.04
lclavicle 9.14409e-015 1.15295e-014
lhumerus -52.8098 31.5324 56.836
lradius 11.2093
lwrist -43.3418
lhand -22.7652 -8.18596
lfingers 7.12502
lthumb 3.66984 381.762
rfemur -2.25453 20.6601 26.6967
rtibia 4.75703
rfoot -15.0003 -22.8017
rtoes 2.89398
lfemur 5.70879 -40.8704 -10.9622
ltibia -3.79731
lfoot -18.7679 49.5217
ltoes 5.77875
1338
root -0.111487 17.4885 8.63722 7.78199 0.484262 -9.09165
lowerback -1.90935 1.66065 7.94081
upperback -8.92443 2.55678 1.33915
thorax -8.09681 0.749951 -3.13501
lowerneck -9.22487 -5.49748 -4.12927
upperneck 26.0813 -9.06539 7.53446
head 10.3814 -3.78032 2.29455
rclavicle 2.75317e-014 -3.97569e-015
rhumerus -59.211 -36.2574 -49.7455
rradius 15.2363
rwrist 46.5647
rhand 18.0768 -35.6816
rfingers 7.12502
rthumb 42.7395 -1500.02
lclavicle 2.75317e-014 -3.97569e-015
lhumerus -52.4797 31.1018 57.397
lradius 11.3486
lwrist -42.7776
lhand -22.8534 -8.33219
lfingers 7.12502
lthumb 3.58467 381.617
rfemur -2.28923 20.6747 26.7636
rtibia 4.76859
rfoot -14.9986 -22.7899
rtoes 2.96994
lfemur 5.68388 -40.8655 -10.8678
ltibia -3.79036
lfoot -18.8371 49.5323
ltoes 5.87838
1339
root -0.110789 17.4884 8.63644 7.7971 0.446615 -9.12379
lowerback -1.93173 1.66822 7.93139
upperback -8.89915 2.56398 1.36004
thorax -8.05587 0.757307 -3.10691
lowerneck -9.44248 -5.6225 -4.2063
upperneck 26.2847 -9.22653 7.46389
head 10.511 -3.85895 2.25681
rclavicle -2.18663e-014 7.15625e-015
rhumerus -58.8687 -36.211 -49.9947
rradius 15.3274
rwrist 46.2251
rhand 18.1643 -35.6101
rfingers 7.12502
rthumb 42.8213 -1499.92
lclavicle -2.18663e-014 7.15625e-015
lhumerus -52.3674 31.0914 57.4392
lradius 11.4217
lwrist -42.8555
lhand -22.8942 -8.51727
lfingers 7.12502
lthumb 3.54525 381.433
rfemur -2.31397 20.7014 26.7865
rtibia 4.76935
rfoot -14.9591 -22.7724
rtoes 2.853
lfemur 5.66183 -40.8628 -10.8234
ltibia -3.77618
lfoot -18.9038 49.5642
ltoes 5.91573
1340
root -0.110353 17.4887 8.63586 7.83938 0.423428 -9.14596
lowerback -1.96421 1.6831 7.93257
upperback -8.90125 2.58083 1.36232
thorax -8.03738 0.76638 -3.10475
lowerneck -9.42534 -5.53756 -4.09505
upperneck 26.3459 -9.10064 7.35374
head 10.5097 -3.80115 2.21613
rclavicle 1.36167e-014 -4.77083e-015
rhumerus -58.5615 -36.0906 -50.3059
rradius 15.4568
rwrist 45.7412
rhand 18.1803 -35.5517
rfingers 7.12502
rthumb 42.8363 -1499.86
lclavicle 1.36167e-014 -4.77083e-015
lhumerus -52.2167 30.9246 57.6064
lradius 11.5168
lwrist -42.7702
lhand -22.8961 -8.63827
lfingers 7.12502
lthumb 3.54343 381.312
rfemur -2.33821 20.7634 26.7936
rtibia 4.71505
rfoot -14.9071 -22.8066
rtoes 2.79866
lfemur 5.59785 -40.8616 -10.752
ltibia -3.78382
lfoot -18.854 49.6036
ltoes 5.79132
1341
root -0.109665 17.489 8.63534 7.87883 0.421472 -9.20172
lowerback -1.99173 1.70098 7.97999
upperback -8.91047 2.6042 1.36738
thorax -8.02835 0.774941 -3.12573
lowerneck -9.29431 -5.45526 -3.90733
upperneck 26.2871 -8.97152 7.19578
head 10.4355 -3.74573 2.14819
rclavicle -2.03754e-014 2.38542e-014
rhumerus -58.2056 -35.8782 -50.745
rradius 15.5852
rwrist 45.1783
rhand 17.956 -35.5935
rfingers 7.12502
rthumb 42.6264 -1499.97
lclavicle -2.03754e-014 2.38542e-014
lhumerus -52.0109 30.6266 57.9183
lradius 11.6236
lwrist -42.5113
lhand -22.7947 -8.76126
lfingers 7.12502
lthumb 3.64139 381.187
rfemur -2.35027 20.8247 26.8488
rtibia 4.64877
rfoot -14.8551 -22.8781
rtoes 2.6496
lfemur 5.54311 -40.8829 -10.6388
ltibia -3.81478
lfoot -18.7611 49.645
ltoes 5.69238
1342
root -0.108884 17.4893 8.63515 7.89044 0.421338 -9.25867
lowerback -1.99412 1.70259 8.00853
upperback -8.91382 2.60845 1.38788
thorax -8.03069 0.775714 -3.11993
lowerneck -9.23938 -5.47914 -3.87258
upperneck 26.2868 -8.99944 7.14334
head 10.4221 -3.76263 2.12163
rclavicle 1.09332e-014 -3.4191e-014
rhumerus -57.8026 -35.6363 -51.2318
rradius 15.6753
rwrist 44.7428
rhand 17.7125 -35.7376
rfingers 7.12502
rthumb 42.3984 -1500.19
lclavicle 1.09332e-014 -3.4191e-014
lhumerus -51.9495 30.536 57.985
lradius 11.7014
lwrist -42.5862
lhand -22.6954 -8.84784
lfingers 7.12502
lthumb 3.73726 381.099
rfemur -2.33329 20.9145 26.9272
rtibia 4.60333
rfoot -14.8145 -22.9711
rtoes 2.45089
lfemur 5.5316 -40.9011 -10.5594
ltibia -3.82236
lfoot -18.8449 49.642
ltoes 5.83987
1343
root -0.10779 17.4891 8.63547 7.91135 0.422034 -9.28078
lowerback -1.99382 1.70097 8.02337
upperback -8.93073 2.60695 1.37502
thorax -8.049 0.772208 -3.1419
lowerneck -9.1355 -5.50918 -3.78645
upperneck 26.2521 -9.0389 7.07148
head 10.3836 -3.7843 2.07928
rclavicle -1.0138e-014 4.37326e-015
rhumerus -57.5087 -35.4661 -51.6519
rradius 15.7923
rwrist 44.4469
rhand 17.4929 -35.7985
rfingers 7.12502
rthumb 42.1928 -1500.32
lclavicle -1.0138e-014 4.37326e-015
lhumerus -51.9419 30.4941 57.9201
lradius 11.7613
lwrist -42.8924
lhand -22.6575 -8.75199
lfingers 7.12502
lthumb 3.77387 381.194
rfemur -2.31301 21.0357 26.9631
rtibia 4.54807
rfoot -14.821 -23.0764
rtoes 2.49086
lfemur 5.51619 -40.8873 -10.5216
ltibia -3.82855
lfoot -18.9277 49.6129
ltoes 6.00987
1344
root -0.106716 17.4887 8.63614 7.93255 0.421381 -9.28225
lowerback -1.99634 1.71524 8.03906
upperback -8.94666 2.62406 1.32481
thorax -8.06069 0.776519 -3.20455
lowerneck -9.12874 -5.71147 -3.95163
upperneck 26.3309 -9.33498 7.17296
head 10.4455 -3.92444 2.10574
rclavicle -1.98785e-016 3.18055e-014
rhumerus -57.2949 -35.3665 -52.0218
rradius 15.9324
rwrist 44.1378
rhand 17.2629 -35.7431
rfingers 7.12502
rthumb 41.9772 -1500.34
lclavicle -1.98785e-016 3.18055e-014
lhumerus -51.7748 30.2378 58.0817
lradius 11.8289
lwrist -43.0612
lhand -22.5696 -8.57114
lfingers 7.12502
lthumb 3.85869 381.374
rfemur -2.28606 21.1109 26.9659
rtibia 4.48118
rfoot -14.8461 -23.1337
rtoes 2.65316
lfemur 5.49057 -40.8433 -10.5087
ltibia -3.82569
lfoot -18.8632 49.605
ltoes 5.92405
1345
root -0.105946 17.4882 8.63694 7.92925 0.403721 -9.26808
lowerback -1.98341 1.72855 8.02346
upperback -8.92954 2.63938 1.28866
thorax -8.04599 0.784633 -3.23506
lowerneck -9.02945 -5.44685 -3.40196
upperneck 26.1765 -8.96149 6.86482
head 10.3006 -3.7386 1.95399
rclavicle 1.04362e-014 2.3059e-014
rhumerus -57.0166 -35.3028 -52.3492
rradius 16.016
rwrist 43.8922
rhand 17.1216 -35.7451
rfingers 7.12502
rthumb 41.8448 -1500.39
lclavicle 1.04362e-014 2.3059e-014
lhumerus -51.5786 30.067 58.259
lradius 11.8905
lwrist -43.3765
lhand -22.3945 -8.49962
lfingers 7.12502
lthumb 4.02785 381.442
rfemur -2.22426 21.2043 26.964
rtibia 4.40222
rfoot -14.8312 -23.2022
rtoes 2.83028
lfemur 5.49445 -40.8091 -10.5387
ltibia -3.8077
lfoot -18.8475 49.6052
ltoes 5.79846
1346
root -0.104872 17.4881 8.63831 7.9177 0.351993 -9.24854
lowerback -1.9605 1.73698 7.99053
upperback -8.887 2.64921 1.28649
thorax -8.01136 0.794095 -3.21979
lowerneck -9.22432 -5.46314 -3.47016
upperneck 26.2415 -8.98844 6.91379
head 10.3703 -3.74526 1.97409
rclavicle -4.67144e-015 3.18055e-015
rhumerus -56.6697 -35.2703 -52.6048
rradius 16.0423
rwrist 43.8088
rhand 17.0213 -35.7754
rfingers 7.12502
rthumb 41.7508 -1500.45
lclavicle -4.67144e-015 3.18055e-015
lhumerus -51.4986 30.1568 58.2543
lradius 11.9426
lwrist -44.0387
lhand -22.2096 -8.64325
lfingers 7.12502
lthumb 4.20633 381.295
rfemur -2.1416 21.3229 26.9577
rtibia 4.2975
rfoot -14.816 -23.2724
rtoes 2.97786
lfemur 5.56333 -40.851 -10.6178
ltibia -3.81944
lfoot -19.0078 49.6693
ltoes 5.92609
1347
root -0.102986 17.4891 8.6399 7.91589 0.30719 -9.22888
lowerback -1.93613 1.74168 7.95739
upperback -8.8785 2.65687 1.29229
thorax -8.01611 0.800464 -3.19635
lowerneck -9.26727 -5.49862 -3.68649
upperneck 26.2152 -9.03194 7.05175
head 10.3896 -3.7707 2.0524
rclavicle 3.18055e-015 9.54166e-015
rhumerus -56.4466 -35.2813 -52.7035
rradius 16.0452
rwrist 43.8746
rhand 16.8822 -35.777
rfingers 7.12502
rthumb 41.6203 -1500.49
lclavicle 3.18055e-015 9.54166e-015
lhumerus -51.4615 30.1411 58.3167
lradius 12.0066
lwrist -44.5637
lhand -22.0991 -8.89525
lfingers 7.12502
lthumb 4.31311 381.041
rfemur -2.05585 21.43 26.9444
rtibia 4.15615
rfoot -14.7816 -23.3561
rtoes 3.02531
lfemur 5.62799 -40.8998 -10.6925
ltibia -3.84153
lfoot -19.1148 49.7332
ltoes 6.10265
